<svg xmlns="http://www.w3.org/2000/svg" xmlns:xlink="http://www.w3.org/1999/xlink" width="200" height="200" viewBox="0 0 200 200"><defs><style>.a{clip-path:url(#b);}.b{fill:#d19130;}.c{fill:#fff;}</style><clipPath id="b"><rect width="200" height="200"/></clipPath></defs><g id="a" class="a"><rect class="c" width="200" height="200"/><path class="b" d="M561.676,4061.487l-1.7-23.223-.031-.229c-.8-4.136-5.266-7.332-10.693-7.86v-2.146c0-4.151-4.374-7.529-9.752-7.529h-5.206c-5.376,0-9.752,3.377-9.752,7.529v2.147c-5.421.53-9.885,3.726-10.682,7.859l-1.741,23.452a8.665,8.665,0,0,0,3.092,7.99,16.06,16.06,0,0,0,10.644,3.722h22.083a16.057,16.057,0,0,0,10.644-3.722,8.658,8.658,0,0,0,3.092-7.99Zm-27.381-35.928H539.5c1.762,0,3.2,1.108,3.2,2.469v2.06H531.1v-2.06c0-1.362,1.435-2.469,3.2-2.469Zm-8.165,9.589h21.547a6.7,6.7,0,0,1,4.846,1.868,1.035,1.035,0,0,1-.24,1.582l-14.433,10.842a2,2,0,0,1-2.3-.011l-14.058-10.822a1.036,1.036,0,0,1-.23-1.571,6.691,6.691,0,0,1,4.867-1.889Zm27.491,31.025a8.577,8.577,0,0,1-5.681,1.966H525.856a8.576,8.576,0,0,1-5.681-1.966,4.276,4.276,0,0,1-1.552-4.062l1.093-14.754c.082-1.089,1.792-1.593,2.792-.822l11.843,9.115a3.994,3.994,0,0,0,4.6.021l12.346-9.272c1.007-.757,2.7-.25,2.78.834l1.07,14.648.029.229a4.272,4.272,0,0,1-1.55,4.062Z" transform="translate(-437 -3946.5)"/></g></svg>