<svg xmlns="http://www.w3.org/2000/svg" xmlns:xlink="http://www.w3.org/1999/xlink" width="200" height="200" viewBox="0 0 200 200"><defs><style>.a{clip-path:url(#b);}.b{fill:#191919;}.c{fill:#fff;}</style><clipPath id="b"><rect width="200" height="200"/></clipPath></defs><g id="a" class="a"><rect class="c" width="200" height="200"/><path class="b" d="M1210.863,2340.7a1.373,1.373,0,1,1-1.373-1.409A1.392,1.392,0,0,1,1210.863,2340.7Zm5.948,0a1.373,1.373,0,1,1-1.372-1.409A1.392,1.392,0,0,1,1216.811,2340.7Zm-7.339-4.2h5.909a.457.457,0,0,0,.431-.314l1.609-4.7a.468.468,0,0,0-.431-.626H1209a.466.466,0,0,0-.456.518l.469,4.7A.462.462,0,0,0,1209.472,2336.5Zm6.881,1.879h-8.121a.924.924,0,0,1-.91-.844l-.9-9.071a.462.462,0,0,0-.455-.422h-1.506a.464.464,0,0,1-.458-.47v-.939a.464.464,0,0,1,.458-.47h2.745a.924.924,0,0,1,.91.844l.155,1.553a.462.462,0,0,0,.455.422h10.2a.937.937,0,0,1,.863,1.252l-2.573,7.517a.917.917,0,0,1-.863.628" transform="translate(-1111 -2233.661)"/></g></svg>