<svg xmlns="http://www.w3.org/2000/svg" width="54.472" height="42.368" viewBox="0 0 54.472 42.368"><defs><style>.a{fill:#d19130;}</style></defs><path class="a" d="M53.008,50.337,50,38.3A8.338,8.338,0,0,0,41.926,32a11.031,11.031,0,0,0-4.068.908,1.512,1.512,0,0,0-.957,1.914l.479,1.436a1.515,1.515,0,0,0,1.436,1.035,5.9,5.9,0,0,0,1.724-.493A3.788,3.788,0,0,1,45.6,39.4l2.806,11.224a12.763,12.763,0,0,0-18.49,5.583H24.555a12.764,12.764,0,0,0-18.49-5.584L8.872,39.4a3.787,3.787,0,0,1,5.062-2.6,5.918,5.918,0,0,0,1.724.493,1.515,1.515,0,0,0,1.436-1.035l.479-1.436a1.512,1.512,0,0,0-.957-1.914A11.046,11.046,0,0,0,12.547,32a8.339,8.339,0,0,0-8.078,6.3l-3,12.035A37.381,37.381,0,0,0,0,61.506a12.834,12.834,0,0,0,25.647.757h3.179a12.834,12.834,0,0,0,25.647-.757A37.347,37.347,0,0,0,53.008,50.337ZM12.862,68.315a6.809,6.809,0,1,1,6.809-6.809A6.817,6.817,0,0,1,12.862,68.315Zm28.75,0a6.809,6.809,0,1,1,6.809-6.809A6.817,6.817,0,0,1,41.611,68.315Z" transform="translate(0 -32)"/></svg>