<svg xmlns="http://www.w3.org/2000/svg" width="61.716" height="49.372" viewBox="0 0 61.716 49.372"><defs><style>.a{fill:#d19130;}</style></defs><path class="a" d="M18.515,15.431H21.6V3.088H18.515a6.172,6.172,0,1,0,0,12.343ZM0,40.117a6.171,6.171,0,0,0,6.172,6.172H9.257V33.946H6.172A6.171,6.171,0,0,0,0,40.117ZM32.541,27.774a19.722,19.722,0,0,0-10.1,3.086c-2.391,1.58-4.293,3.086-10.1,3.086V46.289l5.548,1.54a39.408,39.408,0,0,0,7.744,1.451,33.545,33.545,0,0,0,9.41-.6c10.557-2.268,14.328-7.29,14.328-11.651C49.372,30.86,41.255,27.774,32.541,27.774ZM47.388.7a33.509,33.509,0,0,0-9.41-.6,39.477,39.477,0,0,0-7.744,1.45l-5.548,1.54V15.431c5.805,0,7.709,1.506,10.1,3.086a19.722,19.722,0,0,0,10.1,3.086c8.713,0,16.831-3.086,16.831-9.257,0-4.361-3.77-9.383-14.328-11.65Z" transform="translate(0 -0.002)"/></svg>