<svg xmlns="http://www.w3.org/2000/svg" width="61.083" height="48.86" viewBox="0 0 61.083 48.86"><defs><style>.a{fill:#d19130;}</style></defs><path class="a" d="M60.181,9.209,41.6,0c-1.918,2.653-6.165,4.5-11.118,4.5S21.284,2.653,19.365,0L.785,9.209A1.538,1.538,0,0,0,.1,11.261L5.557,22.187a1.538,1.538,0,0,0,2.052.687l5.4-2.643A1.524,1.524,0,0,1,15.2,21.605v24.2a3.05,3.05,0,0,0,3.054,3.054h24.43a3.05,3.05,0,0,0,3.054-3.054V21.6a1.528,1.528,0,0,1,2.195-1.374l5.4,2.643a1.522,1.522,0,0,0,2.052-.687l5.468-10.917A1.524,1.524,0,0,0,60.181,9.209Z" transform="translate(0.06)"/></svg>